{
  "asset": {
    "version": "2.0",
    "generator": "TASK-003 Astra high original geometry exporter r003"
  },
  "scene": 0,
  "scenes": [
    {
      "nodes": [
        0
      ]
    }
  ],
  "nodes": [
    {
      "name": "visual_root",
      "translation": [
        0,
        0,
        0
      ],
      "children": [
        1
      ],
      "mesh": 0,
      "skin": 0
    },
    {
      "name": "pelvis",
      "translation": [
        0,
        0.78,
        0
      ],
      "children": [
        2,
        7,
        8,
        11
      ]
    },
    {
      "name": "spine",
      "translation": [
        0,
        0.1,
        0
      ],
      "children": [
        3
      ]
    },
    {
      "name": "cloak_core",
      "translation": [
        0,
        0,
        0
      ],
      "children": [
        4
      ]
    },
    {
      "name": "neck",
      "translation": [
        0,
        0.18,
        0
      ],
      "children": [
        5
      ]
    },
    {
      "name": "hood_shell",
      "translation": [
        0,
        0.18,
        0
      ],
      "children": [
        6
      ]
    },
    {
      "name": "crown_inset",
      "translation": [
        0,
        0.12,
        0.198
      ],
      "children": []
    },
    {
      "name": "trim_front",
      "translation": [
        0,
        -0.3,
        0.30600000000000005
      ],
      "children": []
    },
    {
      "name": "leg_l",
      "translation": [
        -0.1107,
        -0.18,
        0
      ],
      "children": [
        9
      ]
    },
    {
      "name": "shin_l",
      "translation": [
        0,
        -0.2,
        0
      ],
      "children": [
        10
      ]
    },
    {
      "name": "foot_l",
      "translation": [
        0,
        -0.4,
        0.027
      ],
      "children": []
    },
    {
      "name": "leg_r",
      "translation": [
        0.1107,
        -0.18,
        0
      ],
      "children": [
        12
      ]
    },
    {
      "name": "shin_r",
      "translation": [
        0,
        -0.2,
        0
      ],
      "children": [
        13
      ]
    },
    {
      "name": "foot_r",
      "translation": [
        0,
        -0.4,
        0.027
      ],
      "children": []
    }
  ],
  "skins": [
    {
      "name": "task-003-generic-skeleton-v1",
      "skeleton": 0,
      "joints": [
        1,
        2,
        3,
        4,
        5,
        6,
        7,
        8,
        9,
        10,
        11,
        12,
        13
      ],
      "inverseBindMatrices": 6
    }
  ],
  "meshes": [
    {
      "name": "task-003-pilgrim-shared-v1",
      "primitives": [
        {
          "attributes": {
            "POSITION": 0,
            "NORMAL": 1,
            "COLOR_0": 2,
            "JOINTS_0": 3,
            "WEIGHTS_0": 4
          },
          "indices": 5,
          "material": 0,
          "mode": 4
        }
      ]
    }
  ],
  "materials": [
    {
      "name": "task-003-character-mask-single-slot",
      "pbrMetallicRoughness": {
        "baseColorFactor": [
          1,
          1,
          1,
          1
        ],
        "metallicFactor": 0,
        "roughnessFactor": 0.9
      },
      "doubleSided": false
    }
  ],
  "buffers": [
    {
      "byteLength": 553556,
      "uri": "data:application/gltf-buffer;base64,"
    }
  ],
  "bufferViews": [
    {
      "buffer": 0,
      "byteOffset": 0,
      "byteLength": 105996,
      "target": 34962
    },
    {
      "buffer": 0,
      "byteOffset": 105996,
      "byteLength": 105996,
      "target": 34962
    },
    {
      "buffer": 0,
      "byteOffset": 211992,
      "byteLength": 141328,
      "target": 34962
    },
    {
      "buffer": 0,
      "byteOffset": 353320,
      "byteLength": 35332,
      "target": 34962
    },
    {
      "buffer": 0,
      "byteOffset": 388652,
      "byteLength": 141328,
      "target": 34962
    },
    {
      "buffer": 0,
      "byteOffset": 529980,
      "byteLength": 19272,
      "target": 34963
    },
    {
      "buffer": 0,
      "byteOffset": 549252,
      "byteLength": 832
    },
    {
      "buffer": 0,
      "byteOffset": 550084,
      "byteLength": 124
    },
    {
      "buffer": 0,
      "byteOffset": 550208,
      "byteLength": 496
    },
    {
      "buffer": 0,
      "byteOffset": 550704,
      "byteLength": 496
    },
    {
      "buffer": 0,
      "byteOffset": 551200,
      "byteLength": 496
    },
    {
      "buffer": 0,
      "byteOffset": 551696,
      "byteLength": 496
    },
    {
      "buffer": 0,
      "byteOffset": 552192,
      "byteLength": 496
    },
    {
      "buffer": 0,
      "byteOffset": 552688,
      "byteLength": 496
    },
    {
      "buffer": 0,
      "byteOffset": 553184,
      "byteLength": 372
    }
  ],
  "accessors": [
    {
      "bufferView": 0,
      "componentType": 5126,
      "count": 8833,
      "type": "VEC3",
      "min": [
        -0.3627490909090909,
        0,
        -0.2673490909090909
      ],
      "max": [
        0.3627490909090909,
        1.3810000000000002,
        0.27724909090909095
      ]
    },
    {
      "bufferView": 1,
      "componentType": 5126,
      "count": 8833,
      "type": "VEC3"
    },
    {
      "bufferView": 2,
      "componentType": 5126,
      "count": 8833,
      "type": "VEC4"
    },
    {
      "bufferView": 3,
      "componentType": 5121,
      "count": 8833,
      "type": "VEC4"
    },
    {
      "bufferView": 4,
      "componentType": 5126,
      "count": 8833,
      "type": "VEC4"
    },
    {
      "bufferView": 5,
      "componentType": 5123,
      "count": 9636,
      "type": "SCALAR",
      "min": [
        0
      ],
      "max": [
        8832
      ]
    },
    {
      "bufferView": 6,
      "componentType": 5126,
      "count": 13,
      "type": "MAT4"
    },
    {
      "bufferView": 7,
      "componentType": 5126,
      "count": 31,
      "type": "SCALAR",
      "min": [
        0
      ],
      "max": [
        1
      ]
    },
    {
      "bufferView": 8,
      "componentType": 5126,
      "count": 31,
      "type": "VEC4"
    },
    {
      "bufferView": 9,
      "componentType": 5126,
      "count": 31,
      "type": "VEC4"
    },
    {
      "bufferView": 10,
      "componentType": 5126,
      "count": 31,
      "type": "VEC4"
    },
    {
      "bufferView": 11,
      "componentType": 5126,
      "count": 31,
      "type": "VEC4"
    },
    {
      "bufferView": 12,
      "componentType": 5126,
      "count": 31,
      "type": "VEC4"
    },
    {
      "bufferView": 13,
      "componentType": 5126,
      "count": 31,
      "type": "VEC4"
    },
    {
      "bufferView": 14,
      "componentType": 5126,
      "count": 31,
      "type": "VEC3"
    }
  ],
  "animations": [
    {
      "name": "walk_a_in_place_v1",
      "samplers": [
        {
          "input": 7,
          "output": 8,
          "interpolation": "LINEAR"
        },
        {
          "input": 7,
          "output": 9,
          "interpolation": "LINEAR"
        },
        {
          "input": 7,
          "output": 10,
          "interpolation": "LINEAR"
        },
        {
          "input": 7,
          "output": 11,
          "interpolation": "LINEAR"
        },
        {
          "input": 7,
          "output": 12,
          "interpolation": "LINEAR"
        },
        {
          "input": 7,
          "output": 13,
          "interpolation": "LINEAR"
        },
        {
          "input": 7,
          "output": 14,
          "interpolation": "LINEAR"
        }
      ],
      "channels": [
        {
          "sampler": 0,
          "target": {
            "node": 8,
            "path": "rotation"
          }
        },
        {
          "sampler": 1,
          "target": {
            "node": 11,
            "path": "rotation"
          }
        },
        {
          "sampler": 2,
          "target": {
            "node": 9,
            "path": "rotation"
          }
        },
        {
          "sampler": 3,
          "target": {
            "node": 12,
            "path": "rotation"
          }
        },
        {
          "sampler": 4,
          "target": {
            "node": 10,
            "path": "rotation"
          }
        },
        {
          "sampler": 5,
          "target": {
            "node": 13,
            "path": "rotation"
          }
        },
        {
          "sampler": 6,
          "target": {
            "node": 3,
            "path": "scale"
          }
        }
      ],
      "extras": {
        "rootMotion": false,
        "fps": 30,
        "durationSeconds": 1,
        "leftContact": [
          [
            0,
            0.1
          ],
          [
            0.5,
            0.6
          ]
        ],
        "rightContact": [
          [
            0.25,
            0.35
          ],
          [
            0.75,
            0.85
          ]
        ],
        "referenceMetersPerSecond": 1.25
      }
    }
  ],
  "extras": {
    "taskId": "TASK-003",
    "taskVersion": 1,
    "originalGeometry": true,
    "axis": "right-handed Y-up +Z-forward",
    "vertexColorChannels": "R=cloth-tint-mask,G=0,B=local-occlusion-detail,A=1",
    "triangleCount": 3212,
    "vertexCount": 8833,
    "parts": [
      {
        "name": "eight-seamed-cloak-with-shoulder-and-variable-hem",
        "startTriangle": 0
      },
      {
        "name": "continuous-thick-ivory-scalloped-hem",
        "startTriangle": 1024
      },
      {
        "name": "cloak-closed-interior-and-hem-return",
        "startTriangle": 1536
      },
      {
        "name": "closed-faceted-ivory-hood-with-integral-crown-strip",
        "startTriangle": 1792
      },
      {
        "name": "embedded-front-facing-side-lozenge",
        "startTriangle": 2044
      },
      {
        "name": "embedded-side-lozenge--1",
        "startTriangle": 2066
      },
      {
        "name": "embedded-side-lozenge-1",
        "startTriangle": 2088
      },
      {
        "name": "colored-neck-cuff",
        "startTriangle": 2110
      },
      {
        "name": "wide-ivory-collar-with-beveled-edge",
        "startTriangle": 2366
      },
      {
        "name": "pointed-ivory-collar-front",
        "startTriangle": 2622
      },
      {
        "name": "front-small-link",
        "startTriangle": 2760
      },
      {
        "name": "closed-hollow-geometric-diamond-chain",
        "startTriangle": 2782
      },
      {
        "name": "short-ivory-vertical-chain-terminal",
        "startTriangle": 2894
      },
      {
        "name": "hem-inlaid-line-and-small-lozenges",
        "startTriangle": 2908
      },
      {
        "name": "left-separated-beveled-foot",
        "startTriangle": 3052
      },
      {
        "name": "right-separated-beveled-foot",
        "startTriangle": 3132
      }
    ],
    "sourceRevision": "astra-r003"
  }
}
